<svg width="36" height="36" viewBox="0 0 36 36" fill="none" xmlns="http://www.w3.org/2000/svg">
<circle cx="18" cy="18" r="18" fill="#FDD506"/>
<path d="M12.4353 16.2161C13.2834 15.4761 14.2685 16.2807 16.8838 15.7194C17.4373 15.6002 18.0669 15.4214 18.5494 15.7194C18.7086 15.8374 18.8406 15.9868 18.9368 16.1579C19.0331 16.3291 19.0914 16.5182 19.108 16.7128C19.4939 18.8635 19.7427 21.034 20.2201 23.1698C20.4079 24.0042 20.6618 24.8635 20.2201 25.1566C19.9915 25.3105 19.7122 25.2211 19.108 25.1566H16.9091C14.0451 25.1566 11.6279 25.7526 11.3486 25.1566C11.3486 25.1268 11.3486 25.1566 11.3486 24.6599C11.3486 24.1632 11.3486 23.8304 11.3486 23.6665C11.4176 21.8356 11.6041 20.0108 11.9072 18.2029C12.156 16.5241 12.2678 16.3651 12.4353 16.2161Z" fill="#FF8080"/>
<path d="M6.36205 26.6466C10.0487 26.8304 13.7456 26.8056 17.4323 26.8602C21.119 26.9148 24.826 27.0787 28.5076 26.9546C28.6459 26.9384 28.7731 26.8723 28.8642 26.7692C28.9552 26.666 29.0036 26.5333 28.9998 26.3971C28.996 26.2609 28.9403 26.131 28.8436 26.0329C28.7469 25.9348 28.6162 25.8755 28.4771 25.8668C24.7955 25.7625 21.0936 25.9066 17.412 25.9165C13.7304 25.9264 10.0284 25.8221 6.34174 25.9165C6.24766 25.9271 6.16085 25.9712 6.09784 26.0403C6.03482 26.1095 6 26.1989 6 26.2915C6 26.3841 6.03482 26.4735 6.09784 26.5427C6.16085 26.6118 6.24766 26.6559 6.34174 26.6665L6.36205 26.6466Z" fill="black"/>
<path d="M12.4405 24.9926C12.8162 23.1201 13.1209 21.2377 13.3799 19.3453C13.451 18.8486 13.517 18.3122 13.5779 17.7906C13.6389 17.2691 13.6897 16.4148 14.299 16.1764C14.82 16.0501 15.3581 16.0049 15.8936 16.0423L17.9248 15.9727C18.4732 15.9727 19.042 15.8982 19.5853 15.933C19.8268 15.9536 20.0566 16.044 20.2456 16.1925C20.4345 16.3411 20.5741 16.5412 20.6466 16.7675C20.9437 17.6616 21.1629 18.5788 21.3017 19.5092C21.8095 21.6847 22.2259 23.89 22.7845 26.0456C22.9521 26.6913 23.8915 26.3784 23.8001 25.7576C23.3533 23.5622 22.8048 21.3817 22.2919 19.1963C22.0584 18.2029 21.9365 16.9065 21.383 15.9976C20.7634 15.0042 19.8595 14.8999 18.7677 14.9297C17.3967 14.9645 16.0002 14.9297 14.6393 15.0787C14.1417 15.1153 13.6724 15.3193 13.3113 15.6562C12.9502 15.9931 12.7196 16.442 12.6588 16.9264C12.5623 17.3734 12.5572 17.8006 12.5014 18.2426C12.2221 20.4628 11.9123 22.6731 11.7194 24.9032C11.6838 25.3056 12.3643 25.3751 12.4405 24.9777V24.9926Z" fill="black"/>
<path d="M14.9797 13.38C14.741 12.63 14.4719 11.89 14.2281 11.1449C14.0961 10.7724 13.9691 10.3999 13.8371 10.0323C13.7051 9.66478 13.5477 8.93465 12.9738 9.10352C12.4 9.27239 12.7301 9.95286 12.8723 10.3154L13.3293 11.4082C13.6306 12.1433 13.9438 12.8701 14.2688 13.5886C14.297 13.6808 14.3616 13.7583 14.4483 13.8039C14.5349 13.8496 14.6366 13.8597 14.7309 13.832C14.8251 13.8044 14.9043 13.7412 14.951 13.6564C14.9976 13.5717 15.008 13.4722 14.9797 13.38Z" fill="black"/>
<path d="M19.5346 13.0721C19.7581 12.5058 19.9612 11.9347 20.1491 11.3585L20.4335 10.5141C20.5549 10.23 20.6501 9.93574 20.7178 9.63498C20.7508 9.51449 20.7361 9.38629 20.6769 9.27587C20.6176 9.16544 20.518 9.08087 20.3979 9.03895C20.2813 8.99089 20.1505 8.98718 20.0312 9.02852C19.9119 9.06987 19.8127 9.1533 19.753 9.26246C19.6309 9.58474 19.5391 9.91725 19.4788 10.2558L19.2604 11.1151C19.1132 11.7111 18.971 12.3121 18.8542 12.9131C18.8428 12.9568 18.8403 13.0023 18.8469 13.047C18.8534 13.0916 18.869 13.1345 18.8926 13.1733C18.9162 13.2121 18.9473 13.2459 18.9843 13.2728C19.0213 13.2998 19.0634 13.3193 19.1081 13.3304C19.1982 13.3503 19.2926 13.3356 19.372 13.2894C19.4514 13.2432 19.5096 13.169 19.5346 13.082V13.0721Z" fill="black"/>
<path d="M23.0436 16.7377C23.5971 16.2906 24.1202 15.7989 24.6331 15.3122C25.1459 14.8254 25.6487 14.3188 26.1565 13.8221C26.2521 13.7233 26.3037 13.5914 26.2999 13.4554C26.2961 13.3194 26.2372 13.1904 26.1362 13.0969C26.0352 13.0034 25.9003 12.9529 25.7613 12.9567C25.6222 12.9604 25.4904 13.018 25.3948 13.1168C24.887 13.6135 24.3792 14.1102 23.8713 14.6069C23.3635 15.1035 22.8557 15.6002 22.4139 16.1615C22.3404 16.2372 22.2993 16.3377 22.2993 16.4421C22.2993 16.5466 22.3404 16.647 22.4139 16.7228C22.4919 16.7936 22.5944 16.833 22.7008 16.833C22.8073 16.833 22.9098 16.7936 22.9878 16.7228L23.0436 16.7377Z" fill="black"/>
<path d="M11.8565 16.6731C11.2708 16.2161 10.6818 15.7674 10.0893 15.327C9.77447 15.0936 9.44947 14.8651 9.12955 14.6367C8.83444 14.382 8.5003 14.1741 8.13932 14.0208C8.05018 14.0125 7.96038 14.0274 7.87903 14.064C7.79768 14.1006 7.72768 14.1576 7.67612 14.2292C7.62456 14.3008 7.59328 14.3845 7.58544 14.4718C7.57761 14.559 7.5935 14.6467 7.63152 14.7261C7.91077 15.0255 8.23634 15.2803 8.59635 15.481C8.90104 15.6896 9.2108 15.9032 9.52057 16.1069C10.1401 16.5141 10.7698 16.9165 11.3995 17.3088C11.7854 17.5522 12.2424 16.9562 11.8768 16.6731H11.8565Z" fill="black"/>
</svg>
