<svg width="36" height="36" viewBox="0 0 36 36" fill="none" xmlns="http://www.w3.org/2000/svg">
<g clip-path="url(#clip0_203_53)">
<path d="M18 36C27.9411 36 36 27.9411 36 18C36 8.05888 27.9411 0 18 0C8.05888 0 0 8.05888 0 18C0 27.9411 8.05888 36 18 36Z" fill="#A586EF"/>
<path d="M10.8667 11.4C10.8007 14.5289 10.7335 17.6578 10.665 20.7867C10.7347 21.6923 10.8007 22.5943 10.8667 23.5C10.9065 23.7777 11.0351 24.0349 11.2333 24.2333C11.4328 24.4301 11.6896 24.5585 11.9667 24.6L18.2 24.534C18.8307 24.5829 19.4943 24.6122 20.191 24.622C20.7777 24.622 21.3387 24.622 21.8777 24.6C21.9973 24.6359 22.1248 24.6359 22.2443 24.6C22.6367 24.468 22.8823 23.8667 22.8053 23.082C22.8053 20.86 23.1537 18.6123 22.8053 16.4197C22.8053 16.35 22.8053 12.2617 22.8053 12.2617L20.8107 10.795L19.85 9.93335H12.3333C12.134 9.90445 11.9307 9.92246 11.7396 9.98595C11.5485 10.0494 11.3748 10.1566 11.2324 10.2991C11.09 10.4415 10.9828 10.6151 10.9193 10.8063C10.8558 10.9974 10.8378 11.2007 10.8667 11.4Z" fill="white"/>
<path d="M19.1937 8.71601C17.5728 8.58579 15.9462 8.54173 14.3207 8.58401L12.6523 8.56568C12.1945 8.52254 11.7327 8.5535 11.2847 8.65735C9.97933 9.09001 10.3167 10.5823 10.3497 11.6347C10.3863 12.885 10.368 14.139 10.3497 15.393C10.3167 16.977 10.2507 18.5573 10.236 20.1597C10.236 20.9517 10.236 21.7437 10.236 22.5357C10.236 23.1883 10.236 23.8483 10.698 24.369C11.2333 24.9667 12.0473 24.9667 12.7953 24.985C16.0073 25.128 19.2193 24.9043 22.4277 24.875C22.5492 24.8721 22.6646 24.821 22.7485 24.733C22.8324 24.645 22.8779 24.5272 22.875 24.4057C22.8721 24.2841 22.821 24.1687 22.733 24.0848C22.645 24.0009 22.5272 23.9554 22.4057 23.9583C19.5677 24.0903 16.7003 24.0757 13.8587 24.0353C13.4627 24.0353 13.0667 24.0353 12.667 24.006L12.2453 23.984H12.051C11.9703 23.984 12.106 23.984 11.9887 23.984C11.7653 23.9682 11.5562 23.8682 11.4037 23.7041C11.2513 23.5401 11.1668 23.3243 11.1673 23.1003C11.105 22.389 11.138 21.6337 11.127 20.937C11.1013 19.43 11.083 17.9267 11.127 16.4197C11.1563 15.3197 11.1747 14.2453 11.171 13.1563C11.171 12.577 11.171 11.9977 11.138 11.4183C11.0849 10.9719 11.0629 10.5222 11.072 10.0727C11.1453 9.31735 11.853 9.35768 12.4323 9.36135H14.042C15.725 9.36135 17.452 9.48968 19.1277 9.33935C19.4503 9.31001 19.564 8.77101 19.1973 8.72701L19.1937 8.71601Z" fill="black"/>
<path d="M22.4937 12.8667C21.9767 12.83 21.456 12.83 20.939 12.83C20.697 12.83 20.455 12.83 20.2057 12.8557C20.1447 12.8502 20.0833 12.8502 20.0223 12.8557C20.0223 12.8557 19.9783 12.918 20.07 12.874C20.1617 12.83 20.07 13.0537 20.1397 12.808C20.1636 12.697 20.1783 12.5841 20.1837 12.4707C20.2277 12.1957 20.2643 11.9207 20.29 11.6457C20.345 11.0713 20.345 10.493 20.29 9.91868L19.5567 10.245C20.29 10.916 20.9867 11.6237 21.7567 12.2287C21.9482 12.3363 22.1309 12.4589 22.303 12.5953C22.3225 12.75 22.3225 12.9064 22.303 13.061C22.303 13.4277 22.303 13.7943 22.303 14.161C22.303 15.7193 22.2663 17.2813 22.2663 18.8433C22.2663 19.6243 22.2663 20.4017 22.2663 21.1827C22.2167 21.9455 22.2352 22.7112 22.3213 23.4707C22.4057 23.9363 23.172 23.896 23.249 23.4487C23.3395 22.6281 23.3566 21.801 23.3003 20.9773C23.3003 20.1377 23.3003 19.298 23.3003 18.4583C23.3003 16.8377 23.2857 15.217 23.2563 13.5963C23.2563 13.1453 23.37 12.5257 23.0987 12.1297C22.9051 11.9193 22.6754 11.7455 22.4203 11.6163C21.6175 11.0086 20.8579 10.3457 20.147 9.63268C20.0838 9.57614 20.0056 9.53908 19.9218 9.52594C19.838 9.51281 19.7523 9.52416 19.6748 9.55864C19.5973 9.59311 19.5314 9.64924 19.4851 9.72027C19.4388 9.79131 19.414 9.87421 19.4137 9.95901C19.4805 10.6919 19.4633 11.43 19.3623 12.159C19.3 12.632 19.146 13.259 19.6007 13.6073C19.8867 13.82 20.257 13.7137 20.587 13.6953C21.2613 13.6845 21.934 13.6257 22.6 13.5193C22.996 13.435 22.8457 12.8813 22.4937 12.8593V12.8667Z" fill="black"/>
<path d="M24.404 14.282C24.2683 15.6277 24.3453 17.01 24.338 18.3593C24.338 20.1597 24.338 21.96 24.316 23.7603C24.316 24.303 24.316 24.842 24.2793 25.3847C24.2793 25.6743 24.1767 25.7293 23.8247 25.777C23.5806 25.7964 23.3354 25.7964 23.0913 25.777C22.611 25.777 22.127 25.777 21.643 25.777C19.124 25.799 16.6013 25.799 14.0787 25.799C13.9703 25.8113 13.8705 25.8638 13.7989 25.9461C13.7273 26.0284 13.6891 26.1345 13.6919 26.2436C13.6946 26.3526 13.7381 26.4567 13.8138 26.5352C13.8895 26.6138 13.9918 26.6611 14.1007 26.668C16.528 26.668 18.9566 26.668 21.3863 26.668C21.9547 26.668 22.523 26.6497 23.0913 26.668C23.7807 26.69 24.745 26.6863 25.086 25.9567C25.2693 25.557 25.1997 24.985 25.2033 24.556C25.2033 22.8107 25.2033 21.0653 25.174 19.3237C25.2224 17.6272 25.1771 15.9294 25.0383 14.238C25.03 14.1616 24.9938 14.091 24.9366 14.0397C24.8794 13.9885 24.8053 13.9601 24.7285 13.9601C24.6517 13.9601 24.5776 13.9885 24.5204 14.0397C24.4632 14.091 24.427 14.1616 24.4187 14.238L24.404 14.282Z" fill="black"/>
<path d="M16.9937 14.018C16.924 14.5227 16.88 15.0305 16.8617 15.5397C16.8717 15.9965 16.8287 16.453 16.7333 16.9C16.6861 17.0899 16.5803 17.2601 16.4309 17.3865C16.2815 17.5129 16.0961 17.589 15.901 17.604C15.7433 17.637 15.4353 17.7177 15.2923 17.6333C15.1493 17.549 15.0687 17.3107 15.01 17.1713L14.0457 17.6333C14.9733 19.2467 15.7727 20.9333 16.6783 22.5577C17.0157 23.159 17.8883 22.6053 17.5803 22.004C16.7333 20.3283 15.7873 18.7333 14.9623 17.054C14.6947 16.5113 13.767 16.922 13.987 17.4903C14.207 18.0587 14.603 18.7333 15.3437 18.7333C16.0182 18.7796 16.6845 18.5628 17.2027 18.1283C17.6111 17.6732 17.829 17.0786 17.8113 16.4673C17.834 15.6689 17.7849 14.87 17.6647 14.0803C17.617 13.7393 17.0523 13.589 16.9937 14.007V14.018Z" fill="black"/>
<path d="M14.3573 14.0877C15.142 14.1537 15.9267 14.1537 16.7113 14.161C17.496 14.1683 18.3247 14.216 19.1277 14.161C19.2327 14.1581 19.3323 14.1136 19.4045 14.0372C19.4767 13.9609 19.5156 13.859 19.5127 13.754C19.5097 13.649 19.4652 13.5494 19.3889 13.4772C19.3126 13.405 19.2107 13.3661 19.1057 13.369C18.3063 13.3323 17.496 13.369 16.693 13.369C15.89 13.369 15.1273 13.369 14.3427 13.4423C14.2619 13.4423 14.1845 13.4744 14.1275 13.5315C14.0704 13.5885 14.0383 13.6659 14.0383 13.7467C14.0383 13.8274 14.0704 13.9048 14.1275 13.9619C14.1845 14.0189 14.2619 14.051 14.3427 14.051L14.3573 14.0877Z" fill="black"/>
<path d="M14.4087 16.0127C14.5827 16.1017 14.7791 16.1374 14.9733 16.1153C15.1713 16.1153 15.3693 16.1153 15.5673 16.1153L16.7113 16.086L17.8517 16.0493C18.2486 16.087 18.6491 16.0433 19.0287 15.921C19.0765 15.8919 19.116 15.8509 19.1434 15.8021C19.1708 15.7533 19.1852 15.6983 19.1852 15.6423C19.1852 15.5864 19.1708 15.5313 19.1434 15.4825C19.116 15.4337 19.0765 15.3928 19.0287 15.3637C18.6385 15.263 18.2322 15.2406 17.8333 15.2977L16.693 15.3307L15.549 15.371C15.351 15.371 15.153 15.3893 14.9587 15.404C14.7621 15.3899 14.5661 15.4373 14.3977 15.5397C14.3575 15.5647 14.3244 15.5995 14.3014 15.6409C14.2784 15.6823 14.2664 15.7288 14.2664 15.7762C14.2664 15.8235 14.2784 15.87 14.3014 15.9114C14.3244 15.9528 14.3575 15.9876 14.3977 16.0127H14.4087Z" fill="black"/>
</g>
<defs>
<clipPath id="clip0_203_53">
<rect width="36" height="36" fill="white"/>
</clipPath>
</defs>
</svg>
