<svg width="18" height="18" viewBox="0 0 18 18" fill="none" xmlns="http://www.w3.org/2000/svg">
<path d="M15.3973 6.0753L12.432 3.10523C12.1172 2.78985 11.5782 3.01285 11.5782 3.45849V4.16308C11.5782 4.44858 11.3392 4.67454 11.0537 4.67666C7.33051 4.70426 5.85115 7.0311 5.40746 9.27945C5.29985 9.82474 6.22565 10.0257 6.63666 9.65154C7.967 8.44054 9.89887 8.29032 11.1747 8.45243C11.4111 8.48246 11.5782 8.68935 11.5782 8.92763V9.39865C11.5782 9.8443 12.1172 10.0673 12.432 9.75192L15.3973 6.78184C15.5922 6.58664 15.5922 6.2705 15.3973 6.0753Z" stroke="#7F8785" stroke-width="1.5" stroke-linecap="round" stroke-linejoin="round"/>
<path d="M15.75 9V9C15.75 11.2857 15.75 12.4285 15.3266 13.3106C14.9034 14.1923 14.1923 14.9034 13.3106 15.3266C12.4285 15.75 11.2857 15.75 9 15.75V15.75C6.71434 15.75 5.5715 15.75 4.68936 15.3266C3.80767 14.9034 3.09658 14.1923 2.6734 13.3106C2.25 12.4285 2.25 11.2857 2.25 9V9C2.25 6.71434 2.25 5.5715 2.6734 4.68936C3.09658 3.80767 3.80767 3.09658 4.68936 2.6734C5.5715 2.25 6.71434 2.25 9 2.25H9.675" stroke="#7F8785" stroke-width="1.5" stroke-linecap="round"/>
</svg>
