<svg width="37" height="36" viewBox="0 0 37 36" fill="none" xmlns="http://www.w3.org/2000/svg">
<g clip-path="url(#clip0_203_88)">
<path d="M18.5 36C28.4411 36 36.5 27.9411 36.5 18C36.5 8.05888 28.4411 0 18.5 0C8.55888 0 0.5 8.05888 0.5 18C0.5 27.9411 8.55888 36 18.5 36Z" fill="#A586EF"/>
<g clip-path="url(#clip1_203_88)">
<path d="M21.1667 11.5C20.804 11.5771 20.4293 11.5771 20.0667 11.5C19.392 11.434 19.0437 11.3533 18.7833 11.3167C17.9506 11.2419 17.1157 11.4345 16.4 11.8667C15.5627 12.3774 14.918 13.151 14.5667 14.0667C14.3772 14.5362 14.2538 15.0298 14.2 15.5333C13.7893 18.6023 14.6583 20.9673 13.8333 21.4C13.617 21.5137 13.4667 21.4 13.2833 21.5833C13.1 21.7667 13.012 22.038 13.2833 23.4167C13.4997 24.5167 13.672 24.832 13.4667 25.0667C13.32 25.2353 13.001 25.3013 12.3667 25.4333C12.0293 25.503 11.846 25.514 11.8167 25.6167C11.7617 25.7963 12.2383 26.0897 12.3667 26.1667C14.3393 27.3693 17.1333 27.6333 17.1333 27.6333C17.7567 27.692 20.0667 27.8827 21.9 27.2667C22.7837 26.9733 23.242 26.6103 23.3667 26.1667C23.3913 26.1087 23.4039 26.0463 23.4039 25.9833C23.4039 25.9203 23.3913 25.858 23.3667 25.8C23.1503 25.4333 22.2667 25.9467 21.35 25.6167C21.0613 25.4992 20.799 25.3251 20.5786 25.1047C20.3582 24.8843 20.1841 24.622 20.0667 24.3333C19.8836 23.8616 19.8836 23.3384 20.0667 22.8667C20.382 22.1333 21.0017 22.1627 22.2667 21.0333C22.5392 20.8186 22.7853 20.5725 23 20.3C23.5903 19.409 23.495 18.3127 23.3667 17C23.2933 16.2667 23.2603 16.4573 23.1833 15.7167C22.9377 13.3297 22.8167 12.1013 22.8167 11.3167C22.8167 11.203 22.8167 10.8803 22.6333 10.7667C22.5756 10.7412 22.5131 10.7281 22.45 10.7281C22.3869 10.7281 22.3244 10.7412 22.2667 10.7667C21.691 10.9427 21.5993 11.313 21.1667 11.5Z" fill="white"/>
<path d="M21.3866 7.03766C20.3159 7.15625 19.2596 7.38102 18.2333 7.70866C17.4046 7.93599 16.5833 8.19633 15.7693 8.47499C14.3686 8.95166 12.5793 9.43199 11.6333 10.6567C11.4034 10.9753 11.2439 11.3392 11.1656 11.7242C11.0872 12.1092 11.0916 12.5065 11.1786 12.8897C11.3656 14.03 11.5783 15.1667 11.78 16.307C12.187 18.628 12.5756 20.949 12.968 23.2737C13.0413 23.7247 13.3346 24.491 12.924 24.8467C12.5751 25.0725 12.1661 25.1875 11.7506 25.1767C10.746 25.2537 9.76698 25.3857 8.75498 25.3747C8.14264 25.3747 8.20498 26.24 8.77698 26.3023C9.70767 26.3384 10.6397 26.2844 11.56 26.141C12.2603 26.0823 13.056 25.9943 13.5876 25.4773C14.321 24.766 13.9543 23.7063 13.7856 22.8373C13.573 21.6823 13.3566 20.5273 13.144 19.3687C12.9313 18.21 12.7333 17.055 12.528 15.9C12.3226 14.745 12.033 13.6157 11.9266 12.468C11.7506 10.6127 13.9506 9.95999 15.333 9.45766C16.1946 9.14599 17.0673 8.85999 17.9436 8.59966C19.1133 8.23299 20.3343 8.01666 21.4746 7.59499C21.7606 7.48866 21.7203 7.01566 21.3866 7.04133V7.03766Z" fill="black"/>
<path d="M21.6067 9.75467C22.1421 9.55301 22.6811 9.38801 23.2237 9.19001C23.7664 8.99201 24.3237 8.87834 24.8517 8.65101C24.9189 8.62989 24.9763 8.58529 25.0133 8.52538C25.0503 8.46546 25.0646 8.39422 25.0534 8.32467C25.0435 8.25473 25.008 8.19093 24.9539 8.14557C24.8997 8.10021 24.8307 8.0765 24.7601 8.07901C24.1693 8.17709 23.5913 8.34065 23.0367 8.56667C22.4794 8.78014 21.9347 9.02498 21.4051 9.30001C21.1594 9.42834 21.3464 9.84267 21.6067 9.74734V9.75467Z" fill="black"/>
<path d="M21.053 13.3333C21.053 13.7293 21.0273 14.129 21.0273 14.5287C20.9985 14.9042 21.012 15.2818 21.0676 15.6543C21.0942 15.8164 21.1745 15.9648 21.2955 16.0758C21.4165 16.1869 21.5712 16.2541 21.735 16.2667C21.8872 16.2587 22.0349 16.212 22.164 16.131L22.3143 16.0357L22.3583 16.0063C22.3583 16.0357 22.142 15.9513 22.2226 15.9843L22.0173 15.647C22.073 16.1338 22.0853 16.6247 22.054 17.1137C22.0578 17.2216 22.1036 17.3238 22.1817 17.3985C22.2598 17.4731 22.3639 17.5144 22.472 17.5133C22.5799 17.5077 22.6816 17.4608 22.756 17.3823C22.8304 17.3038 22.8718 17.1998 22.8716 17.0917C22.8977 16.602 22.8781 16.111 22.813 15.625C22.8049 15.5409 22.772 15.4612 22.7185 15.3959C22.6649 15.3306 22.5932 15.2827 22.5123 15.2583C22.3895 15.2275 22.2611 15.2275 22.1383 15.2582C22.0155 15.2889 21.9021 15.3494 21.8083 15.4343L21.735 15.482C21.691 15.5077 21.6836 15.5113 21.713 15.482C21.7423 15.4527 21.8963 15.5297 21.8303 15.5187C21.8303 15.5187 21.8303 15.5003 21.8303 15.482C21.8185 15.4489 21.8111 15.4144 21.8083 15.3793C21.757 15.0457 21.735 14.701 21.702 14.3673C21.669 14.0337 21.6103 13.6707 21.5626 13.3223C21.5626 13.2562 21.5364 13.1928 21.4896 13.146C21.4428 13.0993 21.3794 13.073 21.3133 13.073C21.2472 13.073 21.1838 13.0993 21.137 13.146C21.0902 13.1928 21.064 13.2562 21.064 13.3223L21.053 13.3333Z" fill="black"/>
<path d="M17.346 15.1667C17.5775 14.7923 17.9435 14.5207 18.369 14.4077C18.5751 14.3679 18.7879 14.3793 18.9886 14.4407C19.2005 14.5148 19.3961 14.6293 19.5643 14.778C19.6295 14.845 19.7177 14.8846 19.8111 14.8887C19.9045 14.8927 19.9959 14.861 20.0666 14.8C20.1381 14.744 20.1863 14.6636 20.2018 14.5742C20.2174 14.4848 20.1993 14.3928 20.151 14.316C19.2563 13.216 17.2176 13.557 16.851 14.9687C16.8384 15.0326 16.8486 15.0989 16.8798 15.1561C16.911 15.2133 16.9613 15.2577 17.0218 15.2817C17.0824 15.3056 17.1495 15.3076 17.2114 15.2873C17.2733 15.2669 17.3261 15.2256 17.3606 15.1703L17.346 15.1667Z" fill="black"/>
<path d="M22.6773 10.796C22.868 12.5743 23.1833 14.3453 23.4656 16.109C23.6013 16.9523 23.7663 17.7957 23.8323 18.6463C23.9531 19.4 23.8244 20.1726 23.4656 20.8463C23.0386 21.4213 22.4754 21.8812 21.8266 22.1847C21.2876 22.489 20.6423 22.7713 20.3196 23.336C20.1768 23.5887 20.1258 23.883 20.1752 24.1691C20.2247 24.4551 20.3716 24.7152 20.591 24.9053C21.1666 25.426 21.966 25.3747 22.6846 25.3417C24.694 25.2573 26.718 25.2023 28.72 24.975C29.281 24.9127 29.281 24.0693 28.7016 24.0913C27.048 24.1537 25.4016 24.3113 23.7443 24.403L22.5746 24.4653C22.1717 24.5328 21.7586 24.5052 21.3683 24.3847C20.4993 23.974 21.4783 23.3543 21.911 23.1197C23.011 22.522 24.166 21.84 24.5656 20.553C24.9946 19.167 24.5216 17.6197 24.2613 16.2373C23.913 14.404 23.6013 12.523 23.1613 10.697C23.1411 10.6394 23.1014 10.5907 23.049 10.5594C22.9966 10.5282 22.9349 10.5163 22.8746 10.5259C22.8143 10.5355 22.7594 10.566 22.7193 10.612C22.6792 10.658 22.6566 10.7166 22.6553 10.7777L22.6773 10.796Z" fill="black"/>
<path d="M22.5013 14.206L22.527 14.1657C22.4976 14.1987 22.549 14.1253 22.527 14.1657C22.5563 14.1327 22.5636 14.118 22.582 14.0997L22.6186 14.0667C22.6186 14.0667 22.6626 14.03 22.6186 14.0667C22.5746 14.1033 22.6186 14.0667 22.6186 14.0667L22.659 14.041L22.736 13.997L22.7726 13.9787C22.7103 14.019 22.736 13.9787 22.7726 13.9787C22.8275 13.9565 22.8839 13.9381 22.9413 13.9237H22.9816C23.0183 13.9237 22.9046 13.9237 22.956 13.9237H23.0513H23.132C23.165 13.9237 23.198 13.942 23.132 13.9237H23.1796L23.2566 13.942H23.3006C23.352 13.942 23.2456 13.9163 23.2786 13.942C23.3657 13.9982 23.4651 14.0321 23.5683 14.041C23.6201 14.0408 23.6708 14.0268 23.7153 14.0004C23.7598 13.9739 23.7964 13.936 23.8213 13.8907C23.8467 13.8446 23.86 13.7929 23.86 13.7403C23.86 13.6878 23.8467 13.6361 23.8213 13.59C23.7437 13.4834 23.6306 13.408 23.5023 13.3773C23.4421 13.3542 23.3793 13.3382 23.3153 13.3297C23.1406 13.3016 22.962 13.3103 22.791 13.3553C22.6329 13.3951 22.4855 13.4689 22.3588 13.5715C22.2322 13.6741 22.1294 13.803 22.0576 13.9493C22.0357 13.9801 22.0205 14.0151 22.0131 14.0521C22.0056 14.0892 22.0061 14.1274 22.0145 14.1642C22.0228 14.201 22.0389 14.2357 22.0616 14.2658C22.0843 14.296 22.1132 14.3211 22.1463 14.3393C22.1794 14.3575 22.2159 14.3685 22.2536 14.3716C22.2912 14.3747 22.3291 14.3698 22.3647 14.3572C22.4003 14.3446 22.4328 14.3247 22.4602 14.2986C22.4875 14.2725 22.509 14.241 22.5233 14.206H22.5013Z" fill="black"/>
</g>
</g>
<defs>
<clipPath id="clip0_203_88">
<rect width="36" height="36" fill="white" transform="translate(0.5)"/>
</clipPath>
<clipPath id="clip1_203_88">
<rect width="22" height="22" fill="white" transform="translate(6.5 6)"/>
</clipPath>
</defs>
</svg>
